<svg>


    <symbol id="plus" viewBox="0 0 14 14" xmlns="http://www.w3.org/2000/svg">
        <path d="M7.00001 3.66659C6.63334 3.66659 6.33334 3.96659 6.33334 4.33325V6.33325H4.33334C3.96668 6.33325 3.66668 6.63325 3.66668 6.99992C3.66668 7.36659 3.96668 7.66659 4.33334 7.66659H6.33334V9.66659C6.33334 10.0333 6.63334 10.3333 7.00001 10.3333C7.36668 10.3333 7.66668 10.0333 7.66668 9.66659V7.66659H9.66668C10.0333 7.66659 10.3333 7.36659 10.3333 6.99992C10.3333 6.63325 10.0333 6.33325 9.66668 6.33325H7.66668V4.33325C7.66668 3.96659 7.36668 3.66659 7.00001 3.66659ZM7.00001 0.333252C3.32001 0.333252 0.333344 3.31992 0.333344 6.99992C0.333344 10.6799 3.32001 13.6666 7.00001 13.6666C10.68 13.6666 13.6667 10.6799 13.6667 6.99992C13.6667 3.31992 10.68 0.333252 7.00001 0.333252ZM7.00001 12.3333C4.06001 12.3333 1.66668 9.93992 1.66668 6.99992C1.66668 4.05992 4.06001 1.66659 7.00001 1.66659C9.94001 1.66659 12.3333 4.05992 12.3333 6.99992C12.3333 9.93992 9.94001 12.3333 7.00001 12.3333Z"/>
    </symbol>

    <symbol id="remove" viewBox="0 0 12 12" xmlns="http://www.w3.org/2000/svg">
        <path d="M6 0a6 6 0 100 12A6 6 0 006 0zm0 10.8a4.8 4.8 0 110-9.6 4.8 4.8 0 010 9.6zM8.2 3L6 5.2 3.8 3l-.8.8L5.2 6 3 8.2l.8.8L6 6.8 8.2 9l.8-.8L6.8 6 9 3.8 8.2 3z"/>
    </symbol>

    <symbol id="change" viewBox="0 0 12 12" xmlns="http://www.w3.org/2000/svg">
        <path d="M0 10.5V13h2.5l7.4-7.4-2.5-2.5L0 10.5zm11.8-6.8c.3-.3.3-.7 0-1l-1.6-1.5a.7.7 0 00-.9 0L8.1 2.4 10.6 5l1.2-1.2z"/>
    </symbol>


    <symbol id="close_modal" viewBox="0 0 17 17" xmlns="http://www.w3.org/2000/svg">
        <path clip-rule="evenodd" d="M16.2 1.7l-1-1-6.7 6.8L1.7.8l-1 1 6.8 6.7-6.7 6.8 1 1 6.7-6.8 6.8 6.7 1-1-6.8-6.7 6.7-6.8z" fill="#B0B0B0"/>
    </symbol>

    <symbol id="sorting" viewBox="0 0 8 8" xmlns="http://www.w3.org/2000/svg">
        <path d="M0 4l.7.7L3.5 2V8h1V2l2.8 2.7L8 4 4 0 0 4z"/>
    </symbol>

    <symbol id="select" viewBox="0 0 10 6" xmlns="http://www.w3.org/2000/svg">
        <path d="M9.50497 5.30978C9.74997 5.06478 9.74997 4.66978 9.50497 4.42478L5.34997 0.269785C5.15497 0.074785 4.83997 0.074785 4.64497 0.269785L0.48997 4.42478C0.24497 4.66978 0.24497 5.06478 0.48997 5.30978C0.73497 5.55478 1.12997 5.55478 1.37497 5.30978L4.99997 1.68978L8.62497 5.31478C8.86497 5.55478 9.26497 5.55478 9.50497 5.30978Z" fill="#9873FF"/>
    </symbol>



    <symbol id="loader" viewBox="0 0 80 80" fill="none" xmlns="http://www.w3.org/2000/svg">
        <path d="M4.00025 40.0005C4.00025 59.8825 20.1182 76.0005 40.0002 76.0005C59.8822 76.0005 76.0002 59.8825 76.0002 40.0005C76.0002 20.1185 59.8823 4.00049 40.0003 4.00049C35.3513 4.00048 30.9082 4.88148 26.8282 6.48648" stroke="#9873FF" stroke-width="8" stroke-miterlimit="10" stroke-linecap="round"/>
    </symbol>
</svg>
